<?xml version="1.0" encoding="utf-8"?>
<!-- Generator: Adobe Illustrator 22.1.0, SVG Export Plug-In . SVG Version: 6.00 Build 0)  -->
<svg version="1.1" id="Layer_1" xmlns="http://www.w3.org/2000/svg" xmlns:xlink="http://www.w3.org/1999/xlink" x="0px" y="0px"
	 viewBox="0 0 576 512" style="enable-background:new 0 0 576 512;" xml:space="preserve">
<style type="text/css">
	.st0{fill:#007E00;}
</style>
<path class="st0" d="M69.3,144.5c-41,68.5-36.4,163,1,227C92.5,409.7,120,423.9,120,438c0,6.8-6,13-12.8,13
	C87.7,451,8,375.5,8,253.2c0-111.5,78-186,97.1-186c6,0,14.9,4.8,14.9,11.1C120,91,91.7,106.9,69.3,144.5z M265.1,358.3
	c4.5,1.8,12.3,5.2,12.3-1.2c0-2.7-2.2-2.9-4.3-3.6c-8.5-3.4-14-7.7-19.1-15.2c-8.2-12.1-10.1-24.2-10.1-38.6
	c0-32.1,44.2-37.9,44.2-70c0-12.3-7.7-15.9-7.7-19.3c0-2.2,0.7-2.2,2.9-2.2c8,0,19.1,13.3,22.5,19.8c2.2,4.6,2.4,6,2.4,11.1
	c0,7-0.7,14.2-0.7,21.3c0,27,31.9,19.8,31.9,6.8c0-6-3.6-11.6-3.6-17.4c0-0.7,0-1.2,0.7-1.2c3.4,0,9.4,7.7,11.1,10.1
	c5.8,8.9,8.5,20.8,8.5,31.4c0,32.4-29.5,49-29.5,56c0,1,2.9,7.7,12.1,1.9c29.7-15.1,53.1-47.6,53.1-89.8c0-33.6-8.7-57.7-32.1-82.6
	c-3.9-4.1-16.4-16.9-22.5-16.9c-8.2,0,7.2,18.6,7.2,31.2c0,7.2-4.8,12.3-12.3,12.3c-11.6,0-14.5-25.4-15.9-33.3
	c-5.8-33.8-12.8-58.2-46.4-74.1c-10.4-5-36.5-11.8-36.5-2.2c0,2.4,2.7,4.1,4.6,5.1c9.2,5.6,19.6,21.4,19.6,38.2
	c0,46.1-57.7,88.2-57.7,136.2C199.6,312.4,227.9,344.7,265.1,358.3L265.1,358.3z M470.4,67c-6,0-14.4,6.5-14.4,12.6
	c0,8.7,12.1,19.6,17.6,25.4c81.6,85.1,78.6,214.3,17.6,291c-7,8.9-35.3,35.3-35.3,43.5c0,5.1,8.2,11.4,13.2,11.4
	c25.4,0,98.8-80.8,98.8-185.7C568,145.9,491.8,67,470.4,67z M428.1,390.1H167c-9.4,0-15.5,7.5-15.5,16.4c0,8.5,7,15.5,15.5,15.5
	h261.1c9.4,0,11.9-7.5,11.9-16.4C440,397.1,436.5,390.1,428.1,390.1z"/>
</svg>
